<?xml version="1.0" encoding="utf-8"?>
<svg version="1.1" xmlns="http://www.w3.org/2000/svg" xmlns:xlink="http://www.w3.org/1999/xlink" width="116" height="36" viewBox="0 0 116 36">
<defs>
<filter id="glow">
<feGaussianBlur in="SourceGraphic" stdDeviation="3" result="blur"/>
<feOffset in="blur" dx="0" dy="0" result="offsetBlur"/>
<feMerge>
<feMergeNode in="offsetBlur"/>
<feMergeNode in="SourceGraphic"/>
</feMerge>
</filter>
<style>
path{
	fill:#fff;
	filter:url(#glow);
}
</style>
</defs>
<path d="M46.4,8.9c-0.1-1.1-0.7-1.5-1.3-2c-0.7-0.5-1.2-0.8-1.2-0.8s1.6,1.6,1.5,3.2c-0.1,1.6-0.7,1.9-0.5,3.5c0.2,1.6,1.4,2.6,1.4,2.6s-0.5-2.4-0.5-2.9C46,11.6,46.6,10.4,46.4,8.9z M52.8,6.5c0,0-1.4,4.1-1.2,7.6c0.1,3-0.2,5.3-0.4,6c-0.3,1.1-0.8,2-1.4,3.4c-0.6,1.4-1,2.8-0.9,5.2c0.1,2.4,0.3,3.4,0.5,4c0.2-0.8,0.3-5,1-6.9c0.8-2.5,2.2-4.5,2.5-6c0.4-2,0.2-3.9,0.2-6.8S52.8,6.5,52.8,6.5z M48.8,12.6c-0.1-1.2,0.2-2.3,0.4-3.1c0.2-0.9,0-1.6-0.6-2.4c-0.6-0.8-1.3-1-1.3-1s0.8,1,0.9,1.9c0.1,1-0.3,1.8-0.4,3.1c-0.2,1.3,0.1,2.3,0.5,2.7c0.3,0.5,1.2,1.6,1.2,1.6S48.9,13.8,48.8,12.6z M30.4,10.2c-0.3,0.2-0.8,0.4-1.1,0.4c-0.2,0-0.5-0.1-0.5-0.1s-0.1-1-0.1-1.6c0-0.5,0-1.2-0.1-1.6c-0.1-0.4-0.2-1.1-0.2-1.1s0.6,0,1.1,0.2C29.9,6.6,30.6,7,30.6,7s-0.3-0.5-0.3-0.6c-0.1-0.1-0.8-0.7-1.1-0.9c-0.3-0.2-1.1-0.4-1.5-0.4s-0.9,0.2-1.6,0.6c-0.7,0.4-1.4,1.2-1.4,1.2s0.3-0.1,0.6-0.2c0.2-0.1,1-0.4,1.3-0.5c0.3-0.1,1.2-0.1,1.2-0.1s0,0.2,0,0.4s0.1,1.7,0,2.5s0,1.4,0,1.4s-0.7,0-1,0c-0.3,0-1,0.4-1.5,0.9s-0.5,1.3-0.5,1.3s0.8-0.6,1.1-0.7s0.9-0.3,1.1-0.3c0.2,0,0.8,0,0.8,0s0,2.6-0.1,3.5c0,0.9-0.2,2.2-0.5,3.1c-0.2,0.9-0.5,1.7-0.7,2.8c-0.2,1.1-0.4,2-0.4,3c0,1.1,0.2,2.5,0.4,3.3c0.3,0.9,1,2,1.6,2.9s2.3,2.2,2.3,2.2s-0.7-1.1-0.9-1.5c-0.2-0.4-0.5-0.9-0.8-1.4c-0.3-0.5-0.7-1.6-0.9-2.2c-0.2-0.6-0.3-1.5-0.3-2.2s0.1-1.5,0.2-2.1c0.1-0.6,0.3-1.7,0.4-2.3c0.1-0.6,0.6-2.5,0.7-3.2c0.1-0.7,0.2-2.9,0.2-3.3c0-0.5-0.1-2.6-0.1-2.6s0.1,0,0.3,0c0.2,0,0.8-0.1,1.1-0.3c0.3-0.2,0.7-0.9,0.8-1.1c0.2-0.2,0.1-0.6,0.1-0.6S30.7,10,30.4,10.2z M10,11.4c0.2-1.3,0.1-2.1-0.1-3.1S9.3,6.3,8.3,4.9S5.4,2.3,5.4,2.3S5.9,3,6.4,3.6s1,1.7,1.5,2.8c0.5,1.1,0.6,2.4,0.5,3.6s-0.1,2.1-0.2,2.6s-0.4,1.5-0.6,2c-0.2,0.5-0.3,1.2-0.4,1.5C7.1,16.5,7,16.9,7,16.9S6.6,17,6.5,17.1c-0.2,0.1-0.6,0.2-1,0.3c-0.4,0.1-0.9,1-0.9,1s0.4-0.2,0.5-0.2c0.2,0,0.9-0.1,1.2-0.2C6.8,17.9,7,17.6,7,17.6s0,0.1,0,1.2c0,1.1,0.1,1.7,0.4,3.1c0.3,1.3,0.7,2.8,0.9,4c0.2,1.2-0.1,1.8-0.5,3.2C7.5,30.6,6,33.1,6,33.1s1.6-1.6,2-2.1s1.2-1.7,1.6-2.4s0.5-2.6,0.5-3.4c-0.1-0.8-0.7-2.6-0.9-3.4c-0.2-0.8-0.6-2.7-0.6-4.2s0.4-2.2,0.7-3C9.5,13.8,9.9,12.7,10,11.4z M110.9,20.5c-0.2-0.3-0.8-1.4-1.1-1.8s-0.6-1-0.8-1.3c-0.2-0.3-0.6-0.6-0.6-0.6s0.1-0.7,0.1-1.2c0-0.4,0.1-1.1,0.1-2.9c0-1.8-0.1-2.7-0.7-4.8c-0.5-2.1-2.1-4.1-2.1-4.1s0.3,1,0.6,1.8c0.3,0.8,0.6,2.3,0.8,3.2c0.2,0.9,0.3,3.4,0.3,4.2c0,0.8-0.3,3.5-0.5,4.5c-0.1,1-0.3,2.6-0.3,3.5c0,0.9,0,3.1,0.1,4c0.1,1,0.5,2.7,0.6,3.7c0.1,1,0.4,4.4,0.4,4.4s0.2-1.8,0.3-2.8c0.1-1,0.1-3,0.1-3.6c0-0.6-0.1-1.4-0.1-2.5c0-1.1,0.2-2.2,0.2-3c0-0.9,0-2.6,0-2.6s0.1,0,0.3,0.2c0.3,0.3,0.6,1,1.3,1.6s2,1.3,2,1.3S111.1,20.8,110.9,20.5z M92.5,19.4c0,0-0.7,2.2-0.7,4c0.1,1.6-0.1,2.8-0.2,3.1c-0.2,0.5-0.4,1-0.8,1.8c-0.3,0.7-0.5,1.5-0.5,2.7c0,1.2,0.1,2.2,0.3,2.5c0.1-0.4,0.2-3,0.5-4c0.4-1.3,1.1-2.3,1.3-3.1c0.2-1.1,0.1-2,0.1-3.6C92.5,21.3,92.5,19.4,92.5,19.4z M74.8,27.2c-0.3-0.5-0.7-1.4-1-2.1c-0.3-0.7-0.4-2.7-0.5-3.3s-0.2-1.9-0.2-2.4c0-0.6-0.2-1.3-0.3-1.5c-0.1-0.2-0.3-0.7-0.4-0.9c-0.1-0.2-0.6-0.5-0.7-0.5c-0.1-0.1-0.5-0.2-0.5-0.2s0.6-0.9,0.8-1.2c0.2-0.3,1.2-1.6,1.5-2.1c0.3-0.4,1.3-1.7,1.5-1.9c0.2-0.2,0.5-0.9,0.5-1c0-0.1-0.2-0.5-0.7-0.6C74.2,9.1,73.3,9,73,9c-0.3,0-1.5,0-1.5,0s0.1-0.2,0.2-0.5c0.1-0.4,0.3-0.8,0.3-1.4c0-0.6-0.2-1.1-0.3-1.5c-0.1-0.3-0.4-1.2-0.4-1.2s-0.6,0.8-0.4,1.4c0.2,0.5,0.3,1.2,0.3,1.5c0,0.4-0.3,1.5-0.3,1.5S70,9,69.7,9s-0.9-0.1-1.4-0.3c-0.4-0.2-1.5-1-1.5-1s0.4,0.7,0.7,1.1c0.3,0.4,0.9,1,1.4,1.3c0.5,0.3,2,0.1,2.9,0.1s1.4,0.2,1.6,0.2s0.4,0.2,0.3,0.4c0,0.1-0.3,0.3-0.6,0.7s-1.5,1.7-2.2,2.7s-2,3-2.6,4.3c-0.6,1.3-1,3.2-1.3,4.5c-0.3,1.3-0.3,3.7-0.3,4.4c0,0.7,0,2.9,0,2.9s0.2-0.3,0.3-0.5c0.1-0.2,0.3-0.8,0.3-1.1s0.1-2.1,0.2-2.7c0.1-0.5,0.2-1.8,0.4-2.4c0.2-0.6,0.6-2.1,0.8-2.6c0.2-0.5,0.6-1.6,0.8-1.9s0.5-0.9,0.5-0.9s0,0.4-0.1,0.5c0,0.1-0.1,0.6-0.1,1c0,0.3-0.1,2.3-0.1,3.1c-0.1,0.8,0,2.6,0.1,3.2c0.1,0.7,0.3,3,0.5,3.9c0.1,0.9,1.1,5,1,4.6s-0.2-4.7-0.3-5.7c-0.1-1-0.1-2.3-0.2-3.3c-0.1-1-0.1-2.8-0.1-3.3c0-0.5,0.2-1.8,0.3-2.4c0.1-0.6,0.1-1.4,0.1-1.4s0.1,0,0.2,0.1c0.1,0.1,0.2,0.1,0.5,0.7s0.5,1.5,0.6,2.3c0.1,0.8,0.2,2,0.3,2.6c0.1,0.9,0.5,2.1,1.1,3c0.6,0.9,2.2,1.2,2.2,1.2S75.2,27.6,74.8,27.2z M89.1,20.7c-0.1-0.6-0.3-0.8-0.7-1.1c-0.4-0.3-0.6-0.4-0.6-0.4s0.9,0.8,0.8,1.7c-0.1,0.8-0.4,1-0.2,1.8s0.7,1.3,0.7,1.3s-0.3-1.3-0.3-1.5C88.9,22,89.2,21.4,89.1,20.7z M90.4,22.6c0-0.6,0.1-1.2,0.2-1.6s0-0.9-0.3-1.3c-0.3-0.4-0.7-0.5-0.7-0.5s0.4,0.5,0.5,1c0.1,0.5-0.1,1-0.2,1.6c-0.1,0.7,0.1,1.2,0.3,1.4s0.6,0.8,0.6,0.8S90.4,23.2,90.4,22.6z"/>
</svg>
